<?xml version="1.0" standalone="no"?>
<!DOCTYPE svg PUBLIC "-//W3C//DTD SVG 20010904//EN"
 "http://www.w3.org/TR/2001/REC-SVG-20010904/DTD/svg10.dtd">
<svg version="1.0" xmlns="http://www.w3.org/2000/svg"
 width="592.000000pt" height="559.000000pt" viewBox="0 0 592.000000 559.000000"
 preserveAspectRatio="xMidYMid meet">
<style>
  g { fill: #000000; }
  @media (prefers-color-scheme: dark) {
    g { fill: #ffffff; }
  }
</style>
<g transform="translate(0.000000,559.000000) scale(0.100000,-0.100000)"
stroke="none">
<path d="M1398 5447 c-86 -25 -158 -99 -175 -182 -5 -22 -8 -549 -7 -1171 2
-1046 3 -1134 19 -1165 33 -64 68 -101 119 -125 l51 -24 542 0 542 0 -25 38
c-217 316 -179 724 102 1103 209 282 527 515 966 708 179 79 559 198 691 217
26 3 47 11 48 18 10 117 -42 218 -136 269 -40 22 -47 22 -735 27 -519 4 -700
8 -716 17 -12 7 -48 52 -82 100 -72 106 -99 136 -142 158 -29 15 -87 17 -524
21 -388 3 -501 1 -538 -9z"/>
<path d="M4853 4880 c-48 -33 -106 -74 -129 -91 -34 -25 -59 -33 -165 -50
-459 -73 -863 -197 -1184 -365 -518 -270 -857 -677 -882 -1059 -17 -259 126
-449 385 -516 70 -18 115 -19 639 -19 627 0 603 -2 677 68 79 76 76 40 76 740
l0 622 -42 -6 c-371 -51 -677 -138 -943 -269 -148 -72 -264 -143 -317 -193
-16 -14 -28 -21 -28 -15 0 20 159 159 268 236 124 87 375 220 512 270 284 106
737 207 920 207 53 0 59 -3 174 -85 65 -47 125 -85 133 -85 41 0 69 77 41 112
-7 8 -75 59 -150 112 -76 54 -138 102 -138 108 0 13 4 16 163 129 129 92 147
112 139 156 -4 21 -36 53 -54 53 -4 0 -46 -27 -95 -60z"/>
<path d="M5252 4924 c-23 -16 -30 -66 -13 -92 4 -7 72 -59 151 -115 79 -57
145 -107 146 -112 2 -6 -66 -59 -151 -118 -155 -108 -155 -108 -155 -147 0
-32 5 -43 26 -57 25 -16 28 -16 60 3 53 30 378 264 392 282 6 9 12 28 12 43 0
23 -12 36 -67 75 -38 26 -115 82 -173 124 -185 135 -193 139 -228 114z"/>
<path d="M2003 2236 c-17 -8 -36 -24 -42 -35 -8 -15 -11 -174 -9 -537 l3 -516
24 -19 c36 -30 111 -26 142 7 l24 26 5 341 5 342 143 -260 c79 -143 152 -268
164 -277 12 -11 37 -18 62 -18 33 0 48 6 67 28 25 27 106 170 230 409 35 68
67 123 72 123 4 0 7 -154 7 -343 0 -379 0 -378 64 -395 45 -13 80 -5 108 25
l23 25 0 513 0 513 -23 25 c-29 31 -82 42 -127 27 -41 -14 -51 -29 -230 -360
-180 -334 -186 -343 -195 -333 -5 4 -46 78 -93 163 -226 415 -261 477 -286
502 -32 34 -93 44 -138 24z"/>
<path d="M3710 2234 c-199 -43 -348 -188 -395 -386 -17 -74 -20 -254 -4 -330
31 -148 140 -293 269 -355 145 -71 361 -82 544 -28 118 34 141 52 150 111 10
76 7 398 -4 431 -17 47 -44 53 -224 53 -150 0 -165 -2 -190 -21 -35 -28 -36
-80 -1 -114 22 -23 31 -25 125 -25 l100 0 0 -129 0 -129 -52 -14 c-29 -7 -98
-13 -153 -13 -86 0 -108 4 -155 26 -79 37 -125 81 -162 156 -29 60 -32 75 -36
183 -8 209 47 322 188 388 105 49 254 42 385 -19 75 -35 108 -32 136 15 41 67
15 116 -85 162 -114 52 -297 68 -436 38z"/>
<path d="M3144 906 c-18 -14 -19 -29 -19 -288 0 -245 2 -276 18 -306 34 -63
155 -94 197 -52 36 36 23 80 -24 80 -18 0 -41 6 -52 14 -18 14 -19 30 -22 278
-2 231 -5 265 -19 276 -22 16 -55 15 -79 -2z"/>
<path d="M895 887 c-14 -22 -16 -60 -13 -317 3 -275 4 -292 22 -306 24 -17
243 -20 325 -4 105 20 183 79 223 168 32 71 32 237 -1 309 -27 61 -84 116
-150 146 -40 19 -69 22 -218 25 l-171 4 -17 -25z m317 -87 c87 -25 137 -102
138 -211 0 -167 -67 -230 -252 -233 l-93 -1 -3 228 -2 227 87 0 c49 0 105 -5
125 -10z"/>
<path d="M5275 721 c-39 -10 -81 -37 -90 -59 -5 -13 -9 -9 -18 18 -13 37 -36
47 -83 36 l-24 -6 0 -225 0 -225 24 -11 c16 -8 34 -8 53 -2 l28 10 5 146 5
147 30 30 c21 21 46 33 84 40 60 11 71 21 71 63 0 20 -7 30 -26 37 -14 6 -26
10 -27 9 -1 -1 -16 -4 -32 -8z"/>
<path d="M1695 701 c-84 -39 -128 -115 -128 -222 0 -80 35 -154 92 -194 75
-51 215 -57 296 -12 32 18 40 28 40 51 0 44 -25 54 -76 30 -56 -24 -144 -25
-181 0 -25 16 -58 71 -58 95 0 8 52 11 165 11 163 0 165 0 170 23 17 66 -42
184 -108 216 -56 27 -155 28 -212 2z m186 -91 c22 -22 29 -37 27 -57 l-3 -28
-104 -3 c-57 -1 -108 1 -113 6 -13 13 15 76 43 96 14 9 43 16 72 16 41 0 53
-5 78 -30z"/>
<path d="M2076 701 c-17 -19 -15 -27 65 -215 46 -108 91 -205 99 -216 8 -11
29 -22 47 -26 25 -5 36 -1 55 17 26 26 188 385 188 416 0 10 -5 24 -12 31 -16
16 -63 15 -80 -2 -8 -7 -41 -79 -73 -160 -32 -80 -61 -146 -64 -146 -4 0 -30
62 -60 138 -29 75 -60 147 -68 160 -18 29 -72 30 -97 3z"/>
<path d="M2727 710 c-79 -24 -136 -103 -144 -202 -15 -156 91 -268 252 -268
83 0 185 46 185 83 0 7 -6 22 -14 33 -13 17 -17 18 -48 5 -60 -24 -115 -34
-153 -27 -48 9 -105 63 -105 100 l0 26 163 2 162 3 3 35 c8 78 -39 165 -108
200 -42 21 -139 26 -193 10z m163 -97 c17 -17 30 -40 32 -58 l3 -30 -112 -1
c-113 0 -113 0 -113 24 0 14 14 38 34 58 29 29 41 34 80 34 36 0 52 -6 76 -27z"/>
<path d="M3535 708 c-116 -42 -175 -184 -131 -316 49 -146 258 -201 380 -100
57 47 80 100 80 188 1 95 -28 160 -92 205 -39 27 -53 30 -125 32 -45 1 -95 -3
-112 -9z m169 -104 c42 -43 56 -114 35 -185 -18 -58 -49 -82 -110 -83 -45 -1
-54 3 -79 31 -52 58 -52 177 0 233 24 26 35 30 78 30 40 0 54 -5 76 -26z"/>
<path d="M3982 708 c-9 -9 -12 -92 -12 -310 l0 -298 25 -16 c18 -12 31 -14 52
-7 34 12 44 44 42 143 0 41 0 78 0 82 1 4 13 -4 27 -17 72 -66 201 -55 267 24
90 107 63 324 -48 389 -34 19 -51 22 -112 20 -63 -3 -76 -7 -101 -31 -33 -32
-42 -34 -42 -9 0 10 -5 23 -12 30 -16 16 -70 16 -86 0z m287 -103 c76 -65 64
-217 -22 -258 -43 -21 -83 -13 -124 25 -31 29 -48 111 -34 165 23 87 116 121
180 68z"/>
<path d="M4655 708 c-49 -18 -83 -47 -112 -96 -24 -41 -28 -58 -28 -127 0 -64
5 -89 23 -123 59 -110 229 -154 358 -92 48 24 61 48 44 81 -13 23 -25 22 -95
-5 -50 -19 -96 -20 -139 -2 -40 17 -76 60 -76 92 l0 24 163 2 162 3 3 38 c7
82 -39 163 -115 201 -37 18 -141 20 -188 4z m167 -95 c15 -16 29 -40 33 -54 6
-25 4 -26 -41 -33 -26 -3 -78 -6 -115 -6 -68 0 -69 1 -69 26 0 16 13 39 34 60
29 29 41 34 83 34 41 0 54 -5 75 -27z"/>
</g>
</svg>
